<svg xmlns="http://www.w3.org/2000/svg" width="500" height="500" viewBox="0 0 500 500">
<g>
<path d="M 229.88 444.75 C229.99,495.82 229.90,499.00 228.25,498.92 C227.29,498.88 181.84,483.93 127.25,465.69 L 28.00 432.53 L 28.00 365.32 C28.00,322.70 28.36,297.90 28.98,297.51 C31.88,295.72 227.48,230.97 228.65,231.42 C229.79,231.86 229.99,236.03 229.77,254.73 L 229.50 277.50 L 205.50 285.42 C192.30,289.77 157.65,301.31 128.50,311.05 L 75.50 328.78 L 75.50 401.36 L 117.00 415.22 C139.82,422.84 163.79,430.81 170.25,432.93 L 182.00 436.79 L 182.00 403.05 L 147.50 402.50 L 147.50 362.50 L 228.50 362.50 L 229.13 376.50 C229.47,384.20 229.81,414.91 229.88,444.75 Z" fill="rgb(2,138,72)"/>
<path d="M 300.00 306.11 C300.00,354.20 299.74,366.98 298.75,366.92 C298.06,366.88 287.15,363.35 274.50,359.09 L 251.50 351.33 L 250.99 215.50 L 351.24 182.10 C406.38,163.74 452.06,148.50 452.75,148.25 C453.73,147.89 454.00,152.81 454.00,170.80 L 454.00 193.82 L 378.25 219.04 C336.59,232.91 301.94,244.48 301.25,244.74 C300.27,245.11 300.00,258.31 300.00,306.11 ZM 277.90 182.57 C263.82,187.21 251.78,191.00 251.13,191.00 C250.27,191.00 250.03,184.88 250.23,167.28 L 250.50 143.56 L 337.00 114.75 C384.58,98.90 430.14,83.75 438.25,81.07 L 453.00 76.20 L 452.98 100.85 L 452.95 125.50 L 429.23 133.17 C399.38,142.81 311.70,171.44 277.90,182.57 Z" fill="rgb(35,84,96)"/>
<path d="M 18.00 0.00 L 500.00 0.00 L 18.50 0.16 L 122.50 34.91 L 226.50 69.67 L 226.50 210.33 L 122.23 245.09 L 17.96 279.85 L 18.23 257.75 L 18.50 235.64 L 21.50 234.82 C23.15,234.36 39.35,230.20 57.50,225.57 C75.65,220.93 109.18,212.33 132.00,206.45 C154.82,200.57 175.41,195.32 177.75,194.80 L 182.00 193.84 L 181.99 140.17 L 181.99 86.50 L 151.24 78.63 C134.34,74.31 104.07,66.55 84.00,61.39 C63.92,56.23 40.86,50.33 32.75,48.27 L 18.00 44.53 Z" fill="rgb(139,86,248)"/>
<path d="M 0.00 250.00 L 0.00 0.00 L 9.00 0.00 L 18.00 0.00 L 18.00 22.27 L 18.00 44.53 L 32.75 48.27 C40.86,50.33 63.92,56.23 84.00,61.39 C104.07,66.55 134.34,74.31 151.24,78.63 L 181.99 86.50 L 181.99 140.17 L 182.00 193.84 L 177.75 194.80 C175.41,195.32 154.82,200.57 132.00,206.45 C109.18,212.33 75.65,220.93 57.50,225.57 C39.35,230.20 23.15,234.36 21.50,234.82 L 18.50 235.64 L 18.23 257.75 L 17.96 279.85 L 122.23 245.09 L 226.50 210.33 L 226.50 140.00 L 226.50 69.67 L 122.50 34.91 L 18.50 0.16 L 259.25 0.08 L 500.00 0.00 L 500.00 250.00 L 500.00 500.00 L 250.00 500.00 L 0.00 500.00 L 0.00 250.00 ZM 229.88 444.75 C229.81,414.91 229.47,384.20 229.13,376.50 L 228.50 362.50 L 188.00 362.50 L 147.50 362.50 L 147.50 382.50 L 147.50 402.50 L 164.75 402.77 L 182.00 403.05 L 182.00 419.92 L 182.00 436.79 L 170.25 432.93 C163.79,430.81 139.82,422.84 117.00,415.22 L 75.50 401.36 L 75.50 365.07 L 75.50 328.78 L 128.50 311.05 C157.65,301.31 192.30,289.77 205.50,285.42 L 229.50 277.50 L 229.77 254.73 C229.99,236.03 229.79,231.86 228.65,231.42 C227.48,230.97 31.88,295.72 28.98,297.51 C28.36,297.90 28.00,322.70 28.00,365.32 L 28.00 432.53 L 127.25 465.69 C181.84,483.93 227.29,498.88 228.25,498.92 C229.90,499.00 229.99,495.82 229.88,444.75 ZM 300.00 306.11 C300.00,258.31 300.27,245.11 301.25,244.74 C301.94,244.48 336.59,232.91 378.25,219.04 L 454.00 193.82 L 454.00 170.80 C454.00,152.81 453.73,147.89 452.75,148.25 C452.06,148.50 406.38,163.74 351.24,182.10 L 250.99 215.50 L 251.24 283.42 L 251.50 351.33 L 274.50 359.09 C287.15,363.35 298.06,366.88 298.75,366.92 C299.74,366.98 300.00,354.20 300.00,306.11 ZM 277.90 182.57 C311.70,171.44 399.38,142.81 429.23,133.17 L 452.95 125.50 L 452.98 100.85 L 453.00 76.20 L 438.25 81.07 C430.14,83.75 384.58,98.90 337.00,114.75 L 250.50 143.56 L 250.23 167.28 C250.03,184.88 250.27,191.00 251.13,191.00 C251.78,191.00 263.82,187.21 277.90,182.57 Z" fill="rgb(254,254,254)"/>
</g>
</svg>